<?xml version="1.0" encoding="utf-8"?>
<!-- Generator: Adobe Illustrator 15.0.0, SVG Export Plug-In . SVG Version: 6.00 Build 0)  -->
<!DOCTYPE svg PUBLIC "-//W3C//DTD SVG 1.1//EN" "http://www.w3.org/Graphics/SVG/1.1/DTD/svg11.dtd">
<svg version="1.1" id="Layer_1" xmlns="http://www.w3.org/2000/svg" xmlns:xlink="http://www.w3.org/1999/xlink" x="0px" y="0px"
	 width="50px" height="50px" viewBox="0 0 50 50" enable-background="new 0 0 50 50" xml:space="preserve">
<path d="M36,0c-2.761,0-5,2.241-5,5c0,2.761,2.239,5,5,5c2.766,0,5-2.239,5-5C41,2.241,38.766,0,36,0z M21.781,7.938
	c-0.458-0.003-0.927,0.147-1.312,0.406l-7.281,5.562c-1.066,0.923-2.078,2.087-1.375,3.125c0.451,0.671,1.973,0.272,2.781-0.219
	l7.625-4.156l4.469,0.969l-6.031,8.969c-1.387,2.401-1.87,4.25,0.625,6.375l8.594,5.688l-4.188,9.906
	c-1.355,3.251-1.084,4.918-0.156,5.312c0.928,0.393,2.289-0.057,4.219-3.594l6.031-11.469c0.535-1.202,0.148-2.629-0.938-3.375
	l-6.906-4.719l7.031-11.25c0.402-0.6,0.662-2.19,0.062-2.594l-3.938-2.656c-0.273-0.236-0.59-0.417-0.969-0.5L22.219,8
	C22.066,7.969,21.934,7.938,21.781,7.938z M36.75,16.375c-0.031,0.056-0.061,0.105-0.094,0.156l-2.781,4.438l0.938,2.25
	c0.324,0.728,1.084,1.436,1.875,1.531c0,0,6.554-0.136,8.062-0.219c1.588-0.086,3.367-0.382,3.406-1.469
	c0.059-1.558-1.416-1.678-2.844-1.781l-6.625-0.469L36.75,16.375z M18.156,28.281l-2.906,4.188c0,0-7.818,0.453-10.25,0.594
	c-1.86,0.109-3,0.825-3,2.031s0.943,1.879,3.625,2.094c2.261,0.182,11.031,0.656,11.031,0.656h0.031
	c0.903,0,1.848-0.489,2.469-1.406l3.094-4.406l-2.062-1.375l-0.094-0.062L20,30.5C19.126,29.756,18.543,29.021,18.156,28.281z"/>
</svg>
