<?xml version="1.0" encoding="utf-8"?>
<!-- Generator: Adobe Illustrator 15.0.0, SVG Export Plug-In . SVG Version: 6.00 Build 0)  -->
<!DOCTYPE svg PUBLIC "-//W3C//DTD SVG 1.1//EN" "http://www.w3.org/Graphics/SVG/1.1/DTD/svg11.dtd">
<svg version="1.1" id="Layer_1" xmlns="http://www.w3.org/2000/svg" xmlns:xlink="http://www.w3.org/1999/xlink" x="0px" y="0px"
	 width="20px" height="20px" viewBox="0 0 20 20" enable-background="new 0 0 20 20" xml:space="preserve">
<path d="M10,1.875C5.52,1.875,1.875,5.52,1.875,10c0,4.48,3.645,8.125,8.125,8.125c4.48,0,8.125-3.645,8.125-8.125
	C18.125,5.52,14.48,1.875,10,1.875z M9.297,3.164c0.025-0.002,0.052,0.002,0.078,0v6.211H7.461C7.326,7.616,6.643,6.014,5.566,4.746
	C6.595,3.876,7.879,3.308,9.297,3.164z M10.625,3.164c1.448,0.13,2.762,0.697,3.809,1.582c-1.076,1.268-1.76,2.87-1.895,4.629
	h-1.914V3.164z M4.688,5.645c0.854,1.035,1.395,2.316,1.523,3.73H3.164C3.291,7.961,3.838,6.679,4.688,5.645z M15.312,5.645
	c0.85,1.035,1.396,2.317,1.523,3.73h-3.047C13.918,7.961,14.459,6.679,15.312,5.645z M3.164,10.625h3.047
	c-0.128,1.414-0.669,2.695-1.523,3.73C3.838,13.32,3.291,12.039,3.164,10.625z M7.461,10.625h1.914v6.211
	c-1.448-0.131-2.761-0.697-3.809-1.582C6.643,13.986,7.326,12.384,7.461,10.625z M10.625,10.625h1.914
	c0.135,1.759,0.818,3.361,1.895,4.629c-1.047,0.885-2.36,1.451-3.809,1.582V10.625z M13.789,10.625h3.047
	c-0.127,1.414-0.674,2.695-1.523,3.73C14.459,13.32,13.918,12.039,13.789,10.625z"/>
</svg>
