<?xml version="1.0" encoding="utf-8"?>
<!-- Generator: Adobe Illustrator 15.0.0, SVG Export Plug-In  -->
<!DOCTYPE svg PUBLIC "-//W3C//DTD SVG 1.1//EN" "http://www.w3.org/Graphics/SVG/1.1/DTD/svg11.dtd" [
	<!ENTITY ns_flows "http://ns.adobe.com/Flows/1.0/">
]>
<svg version="1.1"
	 xmlns="http://www.w3.org/2000/svg" xmlns:xlink="http://www.w3.org/1999/xlink" xmlns:a="http://ns.adobe.com/AdobeSVGViewerExtensions/3.0/"
	 x="0px" y="0px" width="1000px" height="1000px" viewBox="-92.042 -30.19 1000 1000"
	 overflow="visible" enable-background="new -92.042 -30.19 1000 1000" xml:space="preserve">
<defs>
</defs>
<path fill-rule="evenodd" clip-rule="evenodd" fill="#2D384A" d="M796.932,126.457c51.038,411.929-143.246,669.663-390.568,819.115
	C149.483,798.805-32.742,549.851,4.938,126.457C174.909-39.707,628.297-44.581,796.932,126.457z M37.49,153.578
	C5.277,538.587,176.519,766.613,406.363,907.6c223.772-147.518,394.453-375.017,363.447-759.444
	C612.519-3.539,186.379-11.274,37.49,153.578z"/>
<path fill-rule="evenodd" clip-rule="evenodd" fill="#6AABDD" d="M769.977,147.654c31.006,384.428-139.675,611.927-363.447,759.444
	C176.685,766.112,5.443,538.086,37.656,153.077C186.545-11.775,612.685-4.04,769.977,147.654z"/>
<circle fill="#0F7DC2" cx="406.982" cy="209.794" r="168.8"/>
<path display="none" fill-rule="evenodd" clip-rule="evenodd" fill="#58595B" d="M651.536,630.394
	c-36.86-35.549-150.945,34.077-244.588,25.53c0-0.011,0-0.021,0-0.032c-0.067,0.006-0.134,0.01-0.201,0.017
	c-0.067-0.007-0.134-0.011-0.201-0.017c0,0.011,0,0.021,0,0.032c-93.643,8.547-207.728-61.079-244.588-25.53
	c68.705,125.577,233.565,242.82,244.5,250.511c0,0.266,0,0.405,0,0.405s0.098-0.068,0.289-0.202
	c0.191,0.134,0.289,0.202,0.289,0.202s0-0.14,0-0.405C417.971,873.214,582.832,755.971,651.536,630.394z"/>
<circle fill="#2D384A" cx="407.979" cy="208.797" r="144"/>
<path display="none" fill="#F15A29" d="M423.958,363.81c0,0,34-87-30-107s-104-53-99-96s76-68,98-62s39,24,8,42s4,41,61,67
	s72,48,76,87s18,60,7,83s-11,30-11,30"/>
<path display="none" fill="#F15A29" d="M560.958,434.81c0,0,21-56,18-83s-19-126-53-137s-75-37-81-56s76,41,89,8s81,63,84,71
	s-17,127-7,153s2,125,17,148s-3,31-3,31"/>
<path display="none" fill="#F15A29" d="M383.958,362.81c0,0,14-72-7-81s-78-18-90-50s-7-85-4-95s-35,13-36,48s31,124,23,148
	s12,70,12,70"/>
<path display="none" fill="#F15A29" d="M253.958,424.81c0,0-16-64-10-84s19-23,1-58s-16-59-25-69s-19-29-26,30s14,151,5,171
	s-17,152-17,152"/>
<path fill="#2D384A" d="M437.998,844.81c117-106.668,198.203-242.915,142.947-285.075c-2.06,68.488-121.543,142.004-149.131,180.135
	c14.488-88.377,111.881-120.553,95.625-151.113c-2.431,31.773-102.115,54.668-118.125,71.619
	c12.813-64.242,88.532-66.58,64.886-87.727c-9.145-8.178-76.796-77.355-76.796-77.355s-1.557-366.381-0.167-399.483
	c18.808-1.75,25.105,5.642,38.058,10.75c7.959,3.14,19.641,2.608,29.25,9.083c29.183,19.665,16.75,31.667,121.25,143.167
	c77.254,82.429-29.16,140.909,103.761,244.167C738.237,540.793,545.331,796.142,437.998,844.81z"/>
<path fill="#2D384A" d="M365.958,844.81c-117-106.668-198.203-242.915-142.947-285.075c2.06,68.488,121.543,142.004,149.131,180.135
	c-14.488-88.377-111.881-120.553-95.625-151.113c2.431,31.773,102.115,54.668,118.125,71.619
	c-12.813-64.242-88.532-66.58-64.886-87.727c9.145-8.178,76.796-77.355,76.796-77.355s1.557-366.381,0.167-399.483
	c-18.808-1.75-25.105,5.642-38.058,10.75c-7.959,3.14-19.641,2.608-29.25,9.083c-29.183,19.665-16.75,31.667-121.25,143.167
	c-77.254,82.429,29.16,140.909-103.761,244.167C65.719,540.793,258.625,796.142,365.958,844.81z"/>
<path fill="#0F7DC2" d="M533.518,446.644c14.251-43.788,0.083-58.164-27.095-72.776c-0.468,23.023-7.965,50.618-21.074,63.23
	c6.352-29.617,3.438-43.477-4.699-53.883c-0.934,10.669-5.505,22.343-13.152,27.92c5.727-21.511-1.188-26.457-12.842-33.754
	c-4.508-2.823-11.057-3.718-19.986-4.311c-18.387,0-27.683-41.103-27.886-43.261c-0.307-3.258-0.319-6.468-0.253-9.666
	c14.633-0.849,25.186-3.959,35.803-7.209c12.324-3.772,19.562-12,31.312-13.5c4.666-3.457,8.658-8.023,12.375-12.062
	c14.857-16.145,22.52-37.272,30.602-57.77c16.169,14.322,4.516,23.617,13.879,28.141c75.297,36.376-37.98,62.876,28.256,97.876
	C591.003,372.661,573.42,424.009,533.518,446.644z"/>
<path fill="#0F7DC2" d="M279.974,446.644c-14.251-43.788-0.083-58.164,27.095-72.776c0.468,23.023,7.965,50.618,21.074,63.23
	c-6.352-29.617-3.438-43.477,4.699-53.883c0.934,10.669,5.505,22.343,13.152,27.92c-5.727-21.511,1.188-26.457,12.842-33.754
	c4.508-2.823,11.057-3.718,19.986-4.311c18.387,0,27.684-41.103,27.887-43.261c0.307-3.258,0.318-6.468,0.252-9.666
	c-14.633-0.849-25.186-3.959-35.803-7.209c-12.324-3.772-19.562-12-31.312-13.5c-4.666-3.457-8.658-8.023-12.375-12.062
	c-14.857-16.145-22.52-37.272-30.602-57.77c-16.169,14.322-4.516,23.617-13.879,28.141c-75.297,36.376,37.98,62.876-28.256,97.876
	C222.488,372.661,240.071,424.009,279.974,446.644z"/>
<path fill="#FFCB05" d="M416.917,319.13c24.237-1.43,40.669-10.136,56.639-19.731c-13.595-25.562-28.228-50.263-33.646-84.097
	c-7.593,0-15.294,0-22.993,0C416.917,249.987,416.917,284.444,416.917,319.13z"/>
<path fill="#FFCB05" d="M356.747,215.302c-20.813,0-41.812,0-62.708,0c3.692,31.551,16.238,54.068,33.721,71.934
	C343.208,260.81,353.52,245.709,356.747,215.302z"/>
<path fill="#FFCB05" d="M397.826,215.302c-7.7,0-15.401,0-22.994,0c-5.418,33.834-20.051,58.535-33.645,84.097
	c15.969,9.596,32.401,18.302,56.639,19.731C397.826,284.444,397.826,249.987,397.826,215.302z"/>
<path fill="#FFCB05" d="M416.917,199.63c7.699,0,15.4,0,22.993,0c5.418-33.834,20.051-58.535,33.646-84.097
	c-15.97-9.596-32.401-18.302-56.639-19.731C416.917,130.487,416.917,164.944,416.917,199.63z"/>
<path fill="#FFCB05" d="M397.826,95.802c-24.238,1.43-40.669,10.136-56.639,19.731c13.594,25.562,28.227,50.263,33.645,84.097
	c7.593,0,15.294,0,22.994,0C397.826,164.944,397.826,130.487,397.826,95.802z"/>
<path fill="#FFCB05" d="M327.76,127.052c-17.483,17.865-30.029,40.383-33.721,71.934c20.896,0,41.895,0,62.708,0
	C353.52,168.578,343.208,153.478,327.76,127.052z"/>
<path fill="#FFCB05" d="M487.028,287.235c17.483-17.865,30.028-40.383,33.722-71.934c-20.896,0-41.895,0-62.709,0
	C461.269,245.709,471.58,260.81,487.028,287.235z"/>
<path fill="#FFCB05" d="M458.041,198.985c20.814,0,41.812,0,62.709,0c-3.693-31.551-16.238-54.068-33.722-71.934
	C471.58,153.478,461.269,168.578,458.041,198.985z"/>
</svg>
