<?xml version="1.0" encoding="utf-8"?>
<!-- Generator: Adobe Illustrator 15.0.0, SVG Export Plug-In  -->
<!DOCTYPE svg PUBLIC "-//W3C//DTD SVG 1.1//EN" "http://www.w3.org/Graphics/SVG/1.1/DTD/svg11.dtd" [
	<!ENTITY ns_flows "http://ns.adobe.com/Flows/1.0/">
]>
<svg version="1.1"
	 xmlns="http://www.w3.org/2000/svg" xmlns:xlink="http://www.w3.org/1999/xlink" xmlns:a="http://ns.adobe.com/AdobeSVGViewerExtensions/3.0/"
	 x="0px" y="0px" width="1000px" height="1000px" viewBox="-109.667 -44.764 1000 1000"
	 overflow="visible" enable-background="new -109.667 -44.764 1000 1000" xml:space="preserve">
<defs>
</defs>
<path fill-rule="evenodd" clip-rule="evenodd" fill="#F1F2F2" d="M725.274,720.647c57.065-101.032,30.777-240.517,55.28-508.074
	c-91.709,3.699-146.314-29.696-149.229-114.791c-149.82,12.472-204.262-26.585-240.882-97.146c0-0.21,0-0.426,0-0.635
	c-0.055,0.107-0.111,0.21-0.166,0.317c-0.056-0.107-0.111-0.21-0.167-0.317c0,0.209,0,0.425,0,0.635
	c-36.622,70.561-91.063,109.619-240.882,97.146C146.314,182.876,91.709,216.272,0,212.573
	c22.99,251.043,1.264,389.336,45.631,488.906c-0.161,0.285-0.32,0.566-0.48,0.851c40.421,143.774,189.875,218.009,339.966,220.068
	c1.717,0.623,3.416,1.242,5.149,1.868c0,0.002,0,0.004,0,0.008c0.004-0.001,0.008-0.004,0.012-0.005
	c0.003,0.001,0.007,0.004,0.011,0.005c0-0.004,0-0.006,0-0.008c1.697-0.612,3.36-1.219,5.042-1.829
	C538.043,921.281,679.091,854.774,725.274,720.647z"/>
<path fill-rule="evenodd" clip-rule="evenodd" fill="#414042" d="M388.665,61.036c33.295,64.513,82.677,100.265,219.287,88.892
	c2.648,77.359,52.29,107.719,135.662,104.355c-39.248,428.578,64.879,495.696-354.809,647.001
	C388.805,616.676,388.665,274.691,388.665,61.036z"/>
<path fill-rule="evenodd" clip-rule="evenodd" fill="#414042" d="M389.968,61.036c-33.296,64.513-82.677,100.265-219.286,88.892
	c-2.65,77.359-52.29,107.719-135.662,104.355c39.248,428.578-64.879,495.696,354.808,647.001
	C389.827,616.676,389.968,274.691,389.968,61.036z"/>
<path fill-rule="evenodd" clip-rule="evenodd" fill="#D1D3D4" d="M391.428,224.574c-58.762,0-193.821,86.376-316.762,100.996
	c-26.341,87.769,58.809,142.01,64.863,215.553C145.273,610.894,450.19,224.574,391.428,224.574z"/>
<path fill-rule="evenodd" clip-rule="evenodd" fill="#D1D3D4" d="M390.148,224.574c-58.762,0,246.154,386.32,251.898,316.549
	c6.055-73.543,91.205-127.784,64.863-215.553"/>
<path fill-rule="evenodd" clip-rule="evenodd" fill="#CB2841" d="M391.428,198.581c-58.762,0-190.42,91.204-313.361,105.823
	c-26.341,87.769,55.408,137.183,61.462,210.726c5.744,69.771-25.484,120.781-61.462,184.388
	c74.084,263.509,551.048,270.111,623.399,0c-30.508-54.153-74.16-132.799-52.683-219.508c13.42-54.174,82.3-103.168,52.683-175.606
	C573.037,292.348,450.19,198.581,391.428,198.581z"/>
<path fill="#F1F2F2" d="M491.337,496.299l-27.188-27.187l16.387-16.388c0.961-0.961,1.282-2.471,0.732-3.754
	c-0.551-1.282-1.785-2.105-3.157-2.105h-24.489c-3.571,0-6.957,0.549-10.115,1.602l-32.864-32.315l52.82-52.821
	c11.49-11.487,18.081-27.324,18.081-43.436v-6.271c0-1.372-0.826-2.655-2.105-3.158c-1.283-0.549-2.747-0.231-3.755,0.733
	l-84.722,84.721L305.688,311.2c-0.961-0.964-2.47-1.283-3.752-0.733c-1.281,0.55-2.105,1.786-2.105,3.158v6.271
	c0,16.34,6.59,31.948,18.125,42.886l52.775,53.37l-31.768,31.766c-0.228,0.229-0.411,0.458-0.547,0.733
	c-3.388-1.145-7.004-1.739-10.665-1.739h-24.488c-1.372,0-2.655,0.822-3.158,2.105c-0.55,1.28-0.229,2.746,0.777,3.752
	l16.753,16.569l-26.913,26.914c-3.8,3.25-5.677,7.415-5.677,12.771v13.136h12.542c4.897,0,9.702-2.014,13.273-5.584l26.821-27.324
	l16.753,16.566c0.639,0.642,1.511,1.009,2.425,1.009c0.458,0,0.916-0.093,1.328-0.275c1.28-0.55,2.105-1.786,2.105-3.157v-24.489
	c0-3.708-0.642-7.277-1.831-10.619c0.275-0.138,0.595-0.365,0.825-0.594l31.674-31.856l32.359,32.863
	c-1.006,3.158-1.603,6.591-1.603,10.115v24.487c0,1.372,0.824,2.655,2.105,3.158c0.413,0.183,0.869,0.274,1.327,0.274
	c0.916,0,1.785-0.366,2.428-1.005l16.386-16.388l27.188,27.188c3.708,3.709,7.964,5.584,12.679,5.584h13.135v-13.136
	C496.922,504.262,495.045,500.007,491.337,496.299L491.337,496.299z M490.057,515.248"/>
<path fill-rule="evenodd" clip-rule="evenodd" fill="#D1D3D4" d="M390.415,853.421c-114.509,0.255-229.941-49.872-260.782-148.494
	c29.696-47.198,55.471-85.05,50.729-136.823c89.554,89.554,141.912,94.366,209.216,52.799
	C389.579,716.325,390.415,788.631,390.415,853.421z"/>
<path fill-rule="evenodd" clip-rule="evenodd" fill="#D1D3D4" d="M388.418,853.421c114.509,0.255,229.94-49.872,260.781-148.494
	c-29.695-47.198-55.471-85.05-50.729-136.823c-89.555,89.554-141.912,93.699-209.217,52.132
	C389.254,715.658,388.418,788.631,388.418,853.421z"/>
</svg>
