<?xml version="1.0" encoding="utf-8"?>
<!-- Generator: Adobe Illustrator 15.0.0, SVG Export Plug-In  -->
<!DOCTYPE svg PUBLIC "-//W3C//DTD SVG 1.1//EN" "http://www.w3.org/Graphics/SVG/1.1/DTD/svg11.dtd" [
	<!ENTITY ns_flows "http://ns.adobe.com/Flows/1.0/">
]>
<svg version="1.1"
	 xmlns="http://www.w3.org/2000/svg" xmlns:xlink="http://www.w3.org/1999/xlink" xmlns:a="http://ns.adobe.com/AdobeSVGViewerExtensions/3.0/"
	 x="0px" y="0px" width="1000px" height="1000px" viewBox="-93.049 -40.438 1000 1000"
	 overflow="visible" enable-background="new -93.049 -40.438 1000 1000" xml:space="preserve">
<defs>
</defs>
<polygon display="none" fill="#00A651" points="406.35,0.304 406.351,0 405.617,0.152 404.884,0 404.885,0.304 2.284,83.952 
	3.385,619.714 404.487,980.369 406.747,980.369 807.85,619.714 808.95,83.952 "/>
<polygon display="none" fill="#333333" points="406.276,49.292 406.277,49.019 405.617,49.155 404.958,49.019 404.958,49.292 
	42.618,124.575 43.607,606.762 404.601,931.352 406.634,931.352 767.627,606.762 768.617,124.575 "/>
<polygon display="none" fill="#F2F2F2" points="406.246,69.332 406.247,69.07 405.617,69.201 404.987,69.07 404.987,69.332 
	59.117,141.193 60.062,601.462 404.646,911.298 406.587,911.298 751.171,601.462 752.116,141.193 "/>
<polygon display="none" fill="#808080" points="406.246,220.681 406.247,220.562 405.617,220.621 404.987,220.562 404.987,220.681 
	59.117,253.445 60.062,463.297 404.014,725.452 406.587,723.639 751.171,463.297 752.116,253.445 "/>
<path fill="#333333" d="M806.254,12.564c0,0-84.461,21.251-202.457,21.251c-117.997,0-201.771-21.251-201.771-21.251v467.956
	h404.229V12.564z"/>
<path fill="#333333" d="M404.273,12.563c0,0-84.461,21.252-202.457,21.252C83.819,33.815,0.045,12.563,0.045,12.563v467.957h404.229
	V12.563z"/>
<circle fill="#333333" cx="403.746" cy="520.495" r="403.746"/>
<circle fill="#333333" stroke="#333333" stroke-miterlimit="10" cx="403.746" cy="520.496" r="374.532"/>
<path fill="#5B7FAD" d="M363.862,148.817c5.536,33.078,7.099,65.986,6.14,99.451c-0.815,28.502-2.855,56.994-2.781,85.52
	c0.153,58.334,8.035,116.561,11.334,174.757c3.525,62.152,2.944,125.061-10.523,186.123c9.955,2.85,18.613,7.918,25.967,15.222
	c11.803,11.802,19.286,2.439,19.589-25.122c0.291-26.592-0.197-53.449-6.547-79.412c-1.532-6.264,8.111-8.92,9.643-2.658
	c6.409,26.203,7.219,53.375,6.924,80.229c-0.309,28.17,179.507-70.867,165.337-46.495C513.947,765.424,429.378,851.77,431.5,894.009
	c193.887-14.202,346.777-176,346.777-373.514c0-206.848-167.684-374.531-374.531-374.531c-13.517,0-26.864,0.723-40.011,2.119
	C363.777,148.327,363.821,148.573,363.862,148.817z"/>
<path fill="#C1424C" d="M438.149,148.817c-5.536,33.078-7.099,65.986-6.14,99.451c0.815,28.502,2.855,56.994,2.781,85.52
	c-0.153,58.334-8.035,116.561-11.334,174.757c-3.525,62.152-2.944,125.061,10.523,186.123c-9.955,2.85-18.613,7.918-25.967,15.222
	c-11.803,11.802-19.286,2.439-19.589-25.122c-0.291-26.592,0.197-53.449,6.547-79.412c1.532-6.264-8.111-8.92-9.643-2.658
	c-6.409,26.203-7.219,53.375-6.924,80.229c0.309,28.17-179.507-70.867-165.337-46.495
	c74.996,128.993,159.565,215.339,157.443,257.578c-193.887-14.202-346.777-176-346.777-373.513
	c0-206.849,167.684-374.532,374.531-374.532c13.517,0,26.864,0.723,40.011,2.119C438.234,148.327,438.19,148.573,438.149,148.817z"
	/>
<polygon fill="#333333" points="551.361,696.277 515.861,721.277 506.611,761.277 584.111,687.777 "/>
<polyline fill="#333333" points="302.278,759.11 224.778,685.61 257.528,694.11 "/>
<g id="XMLID_8_">
	<g>
		<path fill="#333333" d="M129.713,563.033c-15.651-36.996-23.581-76.288-23.581-116.792c0-40.503,7.93-79.796,23.581-116.792
			c15.109-35.732,36.743-67.823,64.301-95.374c27.55-27.55,59.641-49.184,95.366-64.3c36.996-15.644,76.295-23.582,116.799-23.582
			c40.496,0,79.795,7.938,116.792,23.582c35.725,15.116,67.815,36.75,95.366,64.3c27.557,27.55,49.191,59.641,64.3,95.374
			c15.651,36.996,23.582,76.288,23.582,116.792c0,40.504-7.931,79.796-23.582,116.792c-15.108,35.732-36.743,67.815-64.3,95.373
			c-27.551,27.55-59.642,49.184-95.366,64.293c-36.996,15.651-76.296,23.589-116.792,23.589c-40.504,0-79.804-7.938-116.799-23.589
			c-35.725-15.109-67.816-36.743-95.366-64.293C166.457,630.849,144.823,598.766,129.713,563.033z M121.011,443.737
			c-0.007,0.832-0.015,1.665-0.015,2.504c0,95.842,47.527,180.795,120.248,232.528c-34.098-31.177-53.896-79.699-49.652-135.772
			c9.483-125.443,125.227-173.698,141.562-288.565C225.525,270.597,146.398,335.031,121.011,443.737z M282.305,189.389
			c-82.479,39.938-142.937,118.464-157.778,211.972c29.564-91.784,123.034-146.816,205.907-176.878
			C325.944,203.598,306.139,191.566,282.305,189.389z M365.824,254.432C352.03,369.15,191.175,436.505,207.927,592.003
			c4.028,37.411,17.673,56.489,46.278,95.283c0.283,0.238,0.513,0.446,0.713,0.632c43.871,27.55,95.737,43.506,151.261,43.506
			c55.657,0,107.643-16.037,151.581-43.714c29.08-48.516,52.506-65.081,44.903-139.266
			c-11.482-112.169-144.751-196.818-157.891-291.292c-6.495-46.687,15.764-75.879,57.977-79.253
			c-30.174-10.895-62.688-16.841-96.57-16.841c-34.588,0-67.756,6.191-98.45,17.517
			C342.704,181.548,371.606,206.289,365.824,254.432z M529.562,189.158c-23.373,1.39-43.119,14.343-49.399,32.604
			c92.17,42.376,182.185,86.923,209.579,194.076C679.092,315.805,616.516,231.059,529.562,189.158z M477.436,251.712
			c15.169,115.766,127.977,164.37,141.562,285.844c6.569,58.712-12.322,109.746-47.534,140.953
			c72.52-51.756,119.891-136.583,119.891-232.269c0-0.312,0-0.617-0.008-0.921C662.779,338.056,590.92,274.067,477.436,251.712z"/>
		<path fill="#5B7FAD" d="M120.996,446.241c0-0.84,0.007-1.672,0.015-2.504c25.387-108.706,104.515-173.14,212.143-189.305
			c-16.335,114.867-132.079,163.122-141.562,288.565c-4.244,56.073,15.555,104.596,49.652,135.772
			C168.523,627.036,120.996,542.083,120.996,446.241z"/>
		<path fill="#5B7FAD" d="M124.526,401.36c14.841-93.508,75.299-172.033,157.778-211.972c23.834,2.177,43.64,14.209,48.129,35.093
			C247.561,254.544,154.09,309.577,124.526,401.36z"/>
		<path fill="#E6E6E6" d="M207.927,592.003C191.175,436.505,352.03,369.15,365.824,254.432c5.782-48.144-23.12-72.884-58.095-75.857
			c30.694-11.326,63.862-17.517,98.45-17.517c33.881,0,66.396,5.946,96.57,16.841c-42.213,3.374-64.472,32.566-57.977,79.253
			c13.14,94.474,146.408,179.123,157.891,291.292c7.603,74.185-15.823,90.75-44.903,139.266
			c-43.938,27.677-95.924,43.714-151.581,43.714c-55.524,0-107.391-15.956-151.261-43.506c-0.2-0.186-0.431-0.394-0.713-0.632
			C225.6,648.492,211.955,629.414,207.927,592.003z"/>
		<path fill="#C1424C" d="M480.163,221.762c6.28-18.26,26.026-31.214,49.399-32.604c86.953,41.901,149.529,126.646,160.18,226.679
			C662.348,308.685,572.333,264.138,480.163,221.762z"/>
		<path fill="#C1424C" d="M618.998,537.557c-13.586-121.474-126.394-170.078-141.562-285.844
			c113.484,22.355,185.344,86.343,213.911,193.607c0.008,0.305,0.008,0.609,0.008,0.921c0,95.686-47.371,180.513-119.891,232.269
			C606.676,647.303,625.567,596.269,618.998,537.557z"/>
	</g>
	<g>
		<path fill="none" stroke="#5B7FAD" stroke-miterlimit="10" d="M282.305,189.389c23.834,2.177,43.64,14.209,48.129,35.093
			c-82.873,30.062-176.343,85.095-205.907,176.878C139.368,307.853,199.826,229.327,282.305,189.389z"/>
		<path fill="none" stroke="#5B7FAD" stroke-miterlimit="10" d="M120.996,446.241c0-0.84,0.007-1.672,0.015-2.504
			c25.387-108.706,104.515-173.14,212.143-189.305c-16.335,114.867-132.079,163.122-141.562,288.565
			c-4.244,56.073,15.555,104.596,49.652,135.772C168.523,627.036,120.996,542.083,120.996,446.241z"/>
	</g>
</g>
<path fill="#333333" d="M356.861,248.36c14.186-2.713,35.124-7.201,55.332-7.002c20.208,0.197,49.833,5.67,49.833,5.67
	c0.093-4.805,7.002-23.002,1.835-28.668s-30.008-9.078-56-10c-16.213-0.574-53.167,6-75,15
	C333.69,227.126,357.393,244.485,356.861,248.36z"/>
<path fill="#333333" d="M358.361,234.882c-1.02,1.982-1.723,4.197-2.016,6.678c0.971-0.754,2.035-1.439,3.16-2.07
	C359.287,237.888,358.937,236.356,358.361,234.882z"/>
<polygon fill="#CCCCCC" points="103.151,69.644 40.145,69.644 40.145,120.647 "/>
<polygon fill="#CCCCCC" points="709.144,69.644 772.15,69.644 772.15,120.647 "/>
<polygon fill="#CCCCCC" points="423.163,70.972 401.951,49.76 380.739,70.972 401.951,107.364 "/>
<path display="none" fill="#333333" d="M425.5,760.881c-30.515,6.139-123.205-7.445-176.882-1.985
	c54.086-0.333,147.226,16.532,171.666,14.333c13.681-1.231,30.114-2.938,44.737-4.521C486.03,766.432,427.324,760.515,425.5,760.881
	z"/>
<path display="none" fill="#333333" d="M425.5,179.146c-30.515-6.139-123.205,7.445-176.882,1.985
	c54.086,0.333,147.226-16.532,171.666-14.333c13.681,1.231,30.114,2.938,44.737,4.521C486.03,173.596,427.324,179.513,425.5,179.146
	z"/>
<path display="none" fill="#333333" d="M305.201,691.812c-30.515,6.139-112.402-8.373-166.079-2.913
	c54.086-0.333,147.226,16.532,171.666,14.333C324.469,702,307.025,691.445,305.201,691.812z"/>
<path display="none" fill="#333333" d="M232.201,615.812c-30.515,6.139-91.073-7.71-144.75-2.25
	c54.086-0.333,125.897,15.869,150.337,13.67C251.469,626,234.025,615.445,232.201,615.812z"/>
<path display="none" fill="#333333" d="M305.201,245.543c-30.515-6.139-112.402,8.373-166.079,2.913
	c54.086,0.333,147.226-16.532,171.666-14.333C324.469,235.354,307.025,245.909,305.201,245.543z"/>
<path display="none" fill="#333333" d="M232.201,321.543c-30.515-6.139-91.073,7.71-144.75,2.25
	c54.086,0.333,125.897-15.869,150.337-13.67C251.469,311.354,234.025,321.909,232.201,321.543z"/>
<path display="none" fill="#333333" d="M413.225,175.477V158.54c0,0,6.375-30.062-21.625-38.562c41.5,0,36.625,38.562,36.625,38.562
	v14.938L413.225,175.477z"/>
<path display="none" fill="#333333" d="M439.543,268.479l-0.275,19.357c0,0,7.04,51.83-2.866,80.412
	c21.76-28.236,20.177-84.465,20.177-84.465l-4.031-32.155L439.543,268.479z"/>
<path display="none" fill="#333333" d="M411.543,175.812l-0.275,19.357c0,0,7.04,51.83-2.866,80.412
	c21.76-28.236,20.177-84.465,20.177-84.465l-4.031-32.155L411.543,175.812z"/>
</svg>
